HIERARCHY
ROOT hip
{
  OFFSET 0 0 0
  CHANNELS 6 Xposition Yposition Zposition Zrotation Yrotation Xrotation
  JOINT abdomen
  {
    OFFSET 0 20.6881 -0.73152
    CHANNELS 3 Zrotation Xrotation Yrotation
    JOINT chest
    {
      OFFSET 0 11.7043 -0.48768
      CHANNELS 3 Zrotation Xrotation Yrotation
      JOINT neck
      {
        OFFSET 0 22.1894 -2.19456
        CHANNELS 3 Zrotation Xrotation Yrotation
        JOINT head
        {
          OFFSET -0.24384 7.07133 1.2192
          CHANNELS 3 Zrotation Xrotation Yrotation
          JOINT leftEye
          {
            OFFSET 4.14528 8.04674 8.04672
            CHANNELS 3 Zrotation Xrotation Yrotation
            End Site
            {
              OFFSET 1 0 0
            }
          }
          JOINT rightEye
          {
            OFFSET -3.6576 8.04674 8.04672
            CHANNELS 3 Zrotation Xrotation Yrotation
            End Site
            {
              OFFSET 1 0 0
            }
          }
        }
      }
      JOINT rCollar
      {
        OFFSET -2.68224 19.2634 -4.8768
        CHANNELS 3 Zrotation Xrotation Yrotation
        JOINT rShldr
        {
          OFFSET -8.77824 -1.95073 1.46304
          CHANNELS 3 Zrotation Xrotation Yrotation
          JOINT rForeArm
          {
            OFFSET -28.1742 -1.7115 0.48768
            CHANNELS 3 Zrotation Xrotation Yrotation
            JOINT rHand
            {
              OFFSET -22.5879 0.773209 7.07136
              CHANNELS 3 Zrotation Xrotation Yrotation
              JOINT rThumb1
              {
                OFFSET -1.2192 -0.487915 3.41376
                CHANNELS 3 Zrotation Xrotation Yrotation
                JOINT rThumb2
                {
                  OFFSET -3.37035 -0.52449 3.41376
                  CHANNELS 3 Zrotation Xrotation Yrotation
                  End Site
                  {
                    OFFSET -1.78271 -1.18214 1.43049
                  }
                }
              }
              JOINT rIndex1
              {
                OFFSET -7.75947 0.938293 5.60832
                CHANNELS 3 Zrotation Xrotation Yrotation
                JOINT rIndex2
                {
                  OFFSET -2.54057 -0.884171 1.56538
                  CHANNELS 3 Zrotation Xrotation Yrotation
                  End Site
                  {
                    OFFSET -1.62519 -0.234802 1.16502
                  }
                }
              }
              JOINT rMid1
              {
                OFFSET -8.24714 1.18213 3.41376
                CHANNELS 3 Zrotation Xrotation Yrotation
                JOINT rMid2
                {
                  OFFSET -3.10165 -0.590103 1.0647
                  CHANNELS 3 Zrotation Xrotation Yrotation
                  End Site
                  {
                    OFFSET -2.48547 -0.328903 0.83742
                  }
                }
              }
              JOINT rRing1
              {
                OFFSET -8.82822 0.546677 1.51678
                CHANNELS 3 Zrotation Xrotation Yrotation
                JOINT rRing2
                {
                  OFFSET -2.60934 -0.819778 -0.0198488
                  CHANNELS 3 Zrotation Xrotation Yrotation
                  End Site
                  {
                    OFFSET -2.33842 -0.294052 0.168128
                  }
                }
              }
              JOINT rPinky1
              {
                OFFSET -8.27202 -0.0477905 -0.4584
                CHANNELS 3 Zrotation Xrotation Yrotation
                JOINT rPinky2
                {
                  OFFSET -1.82734 -0.647385 -0.700984
                  CHANNELS 3 Zrotation Xrotation Yrotation
                  End Site
                  {
                    OFFSET -1.69225 -0.51767 -0.607171
                  }
                }
              }
            }
          }
        }
      }
      JOINT lCollar
      {
        OFFSET 2.68224 19.2634 -4.8768
        CHANNELS 3 Zrotation Xrotation Yrotation
        JOINT lShldr
        {
          OFFSET 8.77824 -1.95073 1.46304
          CHANNELS 3 Zrotation Xrotation Yrotation
          JOINT lForeArm
          {
            OFFSET 28.1742 -1.7115 0.48768
            CHANNELS 3 Zrotation Xrotation Yrotation
            JOINT lHand
            {
              OFFSET 22.5879 0.773209 7.07136
              CHANNELS 3 Zrotation Xrotation Yrotation
              JOINT lThumb1
              {
                OFFSET 1.2192 -0.487915 3.41376
                CHANNELS 3 Zrotation Xrotation Yrotation
                JOINT lThumb2
                {
                  OFFSET 3.37035 -0.52449 3.41376
                  CHANNELS 3 Zrotation Xrotation Yrotation
                  End Site
                  {
                    OFFSET 1.78271 -1.18214 1.43049
                  }
                }
              }
              JOINT lIndex1
              {
                OFFSET 7.75947 0.938293 5.60832
                CHANNELS 3 Zrotation Xrotation Yrotation
                JOINT lIndex2
                {
                  OFFSET 2.54057 -0.884171 1.56538
                  CHANNELS 3 Zrotation Xrotation Yrotation
                  End Site
                  {
                    OFFSET 1.62519 -0.234802 1.16502
                  }
                }
              }
              JOINT lMid1
              {
                OFFSET 8.24714 1.18213 3.41376
                CHANNELS 3 Zrotation Xrotation Yrotation
                JOINT lMid2
                {
                  OFFSET 3.10165 -0.590103 1.0647
                  CHANNELS 3 Zrotation Xrotation Yrotation
                  End Site
                  {
                    OFFSET 2.48547 -0.328903 0.83742
                  }
                }
              }
              JOINT lRing1
              {
                OFFSET 8.82822 0.546677 1.51678
                CHANNELS 3 Zrotation Xrotation Yrotation
                JOINT lRing2
                {
                  OFFSET 2.60934 -0.819778 -0.0198488
                  CHANNELS 3 Zrotation Xrotation Yrotation
                  End Site
                  {
                    OFFSET 2.33842 -0.294052 0.168128
                  }
                }
              }
              JOINT lPinky1
              {
                OFFSET 8.27202 -0.0477905 -0.4584
                CHANNELS 3 Zrotation Xrotation Yrotation
                JOINT lPinky2
                {
                  OFFSET 1.82734 -0.647385 -0.700984
                  CHANNELS 3 Zrotation Xrotation Yrotation
                  End Site
                  {
                    OFFSET 1.69225 -0.51767 -0.607171
                  }
                }
              }
            }
          }
        }
      }
    }
  }
  JOINT rButtock
  {
    OFFSET -8.77824 4.35084 1.2192
    CHANNELS 3 Zrotation Xrotation Yrotation
    JOINT rThigh
    {
      OFFSET 0 -1.70687 -2.19456
      CHANNELS 3 Zrotation Xrotation Yrotation
      JOINT rShin
      {
        OFFSET 0 -36.8199 0.73152
        CHANNELS 3 Zrotation Xrotation Yrotation
        JOINT rFoot
        {
          OFFSET 0.73152 -45.1104 -5.12064
          CHANNELS 3 Zrotation Xrotation Yrotation
          End Site
          {
            OFFSET -1.1221 -3.69964 12.103
          }
        }
      }
    }
  }
  JOINT lButtock
  {
    OFFSET 8.77824 4.35084 1.2192
    CHANNELS 3 Zrotation Xrotation Yrotation
    JOINT lThigh
    {
      OFFSET 0 -1.70687 -2.19456
      CHANNELS 3 Zrotation Xrotation Yrotation
      JOINT lShin
      {
        OFFSET 0 -36.8199 0.73152
        CHANNELS 3 Zrotation Xrotation Yrotation
        JOINT lFoot
        {
          OFFSET -0.73152 -45.1104 -5.12064
          CHANNELS 3 Zrotation Xrotation Yrotation
          End Site
          {
            OFFSET 1.1221 -3.69964 12.103
          }
        }
      }
    }
  }
}
MOTION
Frames:	8
Frame Time:	0.00833333
281.841 83.2357 -139.299 0.0 0.0 0.0 -2.59965 0.00036601 -0.070275 -0.716706 0.0122901 -0.12403 1.36622e-13 -7.95139e-16 -1.98784e-16 4.09167e-13 3.18055e-15 -2.98177e-16 -0.0 0.0 0.0 -0.0 0.0 0.0 6.82855e-14 3.56026e-16 9.93923e-17 1.43311e-12 7.65321e-15 4.17448e-15 2.46292e-11 -7.12464e-12 -2.51264e-13 2.8211e-10 8.7587e-12 1.52667e-13 6.6541e-10 3.54286e-12 -2.60805e-13 1.14913e-09 6.11939e-12 -4.5959e-13 6.65415e-10 3.54513e-12 -2.76708e-13 7.73091 5.47488 0.417314 6.6541e-10 3.54234e-12 -2.51264e-13 2.90554 0.965183 0.102902 6.65413e-10 3.54274e-12 -2.51264e-13 10.2786 0.731801 0.0259123 6.65405e-10 3.54433e-12 -2.35361e-13 2.22167 -0.733487 -0.20892 6.83834e-14 3.59715e-16 -9.93923e-17 1.42984e-12 7.25564e-15 2.5842e-15 2.46705e-11 7.6228e-12 -2.48083e-13 2.82095e-10 -6.00988e-12 1.87653e-13 6.65464e-10 3.50288e-12 -2.29e-13 1.14923e-09 6.05578e-12 -4.18243e-13 6.65461e-10 3.50497e-12 -2.16278e-13 -7.73091 5.47488 -0.417314 6.65464e-10 3.50298e-12 -2.29e-13 -2.90554 0.965183 -0.102902 6.65451e-10 3.50378e-12 -2.32976e-13 -10.2786 0.731801 -0.0259123 6.65464e-10 3.50378e-12 -2.48083e-13 -2.22167 -0.733487 0.20892 -2.03217e-16 0.0 -3.88251e-19 -1.50075 -1.93106 0.00776708 -0.0087224 -2.07863 -0.0717219 -0.472769 3.99921 0.134526 2.03217e-16 0.0 3.88251e-19 -2.45036 -8.43847 0.261204 -0.00685736 9.7081 -0.175602 0.523135 -1.28002 -0.0328255
274.692 82.235 -143.915 -9.7913 -69.3648 7.2667 -1.29258 0.463394 -0.254588 -0.910128 1.61342 -0.200255 1.13742 1.86191 0.357096 -1.2078 -2.08858 0.366598 -0.0 0.0 0.0 -0.0 0.0 0.0 6.42266e-14 1.39483e-13 6.21315e-14 22.2973 3.80565 0.138446 -4.31095 -1.97721 6.71321 0.00023379 0.339217 0.0476707 1.92784e-10 -1.80245e-10 -4.52208e-11 3.32045e-10 -3.12261e-10 -7.7018e-11 1.92788e-10 -1.80242e-10 -4.5234e-11 7.73091 5.47488 0.417314 1.92783e-10 -1.80245e-10 -4.5211e-11 2.90554 0.965183 0.102902 1.92788e-10 -1.80244e-10 -4.5212e-11 10.2786 0.731801 0.0259123 1.9278e-10 -1.80242e-10 -4.51994e-11 2.22167 -0.733487 -0.20892 6.43152e-14 1.39485e-13 6.19463e-14 -22.25 5.76558 -1.15979 3.33607 -1.37435 -5.3542 -0.0797083 -6.27051 0.862326 4.47025e-10 2.54642e-10 2.93818e-10 7.67474e-10 4.39868e-10 5.07203e-10 4.4702e-10 2.54642e-10 2.93829e-10 -7.73091 5.47488 -0.417314 4.47025e-10 2.5464e-10 2.93821e-10 -2.90554 0.965183 -0.102902 4.47014e-10 2.5464e-10 2.93816e-10 -10.2786 0.731801 -0.0259123 4.47028e-10 2.54642e-10 2.93806e-10 -2.22167 -0.733487 0.20892 -2.03217e-16 0.0 -3.88251e-19 -0.344316 -4.26535 0.133377 0.0326612 7.47936 0.125401 -1.06338 -2.92822 -3.87143 2.03217e-16 0.0 3.88251e-19 -0.949861 -8.12373 1.91371 -0.0221674 15.1761 -0.254893 0.961648 -6.34652 2.95039
274.698 82.2312 -143.916 -9.7597 -69.3716 7.2685 0.0921039 0.952661 -0.448093 -1.11018 3.30692 -0.280741 2.31398 3.83052 0.735562 -2.4544 -4.29581 0.755391 -0.0 0.0 0.0 -0.0 0.0 0.0 6.13562e-14 2.95054e-13 1.2789e-13 45.8492 7.82837 0.28606 -8.36935 -3.97776 13.8374 -0.000133188 0.698518 0.0981697 -3.25165e-10 -3.80468e-10 -9.76102e-11 -5.63424e-10 -6.59141e-10 -1.66271e-10 -3.25162e-10 -3.80464e-10 -9.76208e-11 7.73091 5.47488 0.417314 -3.25168e-10 -3.80468e-10 -9.76001e-11 2.90554 0.965183 0.102902 -3.2516e-10 -3.80466e-10 -9.7602e-11 10.2786 0.731801 0.0259123 -3.2517e-10 -3.80464e-10 -9.75929e-11 2.22167 -0.733487 -0.20892 6.14346e-14 2.95053e-13 1.27719e-13 -45.5114 11.8641 -2.42563 6.59238 -2.79182 -11.0365 0.0461775 -12.9073 1.81073 2.07892e-10 5.2238e-10 6.13987e-10 3.49599e-10 9.02251e-10 1.0598e-09 2.07884e-10 5.22378e-10 6.13996e-10 -7.73091 5.47488 -0.417314 2.07892e-10 5.22375e-10 6.13994e-10 -2.90554 0.965183 -0.102902 2.07882e-10 5.22375e-10 6.13988e-10 -10.2786 0.731801 -0.0259123 2.07897e-10 5.22378e-10 6.13983e-10 -2.22167 -0.733487 0.20892 -2.03217e-16 0.0 -3.88251e-19 0.888373 -6.73206 0.266391 0.00219625 17.5837 0.347871 -2.75112 -10.1633 -8.22473 2.03217e-16 0.0 3.88251e-19 0.616016 -7.78379 3.65841 -0.0204973 20.9564 -0.345942 2.00851 -11.6529 6.19358
274.694 82.233 -143.927 -9.8132 -69.4578 7.3181 1.33051 1.38938 -0.623371 -1.28414 4.81562 -0.353714 3.34237 5.58487 1.07583 -3.5428 -6.26472 1.10567 -0.0 0.0 0.0 -0.0 0.0 0.0 5.61089e-14 4.17737e-13 1.86196e-13 66.8359 11.4167 0.422788 -11.5691 -5.60657 20.2286 -0.000992248 1.01765 0.143032 -7.52467e-10 -5.4782e-10 -1.35141e-10 -1.30212e-09 -9.49022e-10 -2.30135e-10 -7.52464e-10 -5.47816e-10 -1.35149e-10 7.73091 5.47488 0.417314 -7.52471e-10 -5.4782e-10 -1.3513e-10 2.90554 0.965183 0.102902 -7.52461e-10 -5.47817e-10 -1.35133e-10 10.2786 0.731801 0.0259123 -7.52472e-10 -5.47815e-10 -1.35127e-10 2.22167 -0.733487 -0.20892 5.61787e-14 4.17734e-13 1.86038e-13 -66.022 17.2677 -3.62537 9.24726 -3.97928 -16.0978 0.354028 -18.794 2.71643 1.01479e-11 7.56922e-10 8.81911e-10 3.9576e-12 1.30749e-09 1.52245e-09 1.01373e-11 7.56917e-10 8.81918e-10 -7.73091 5.47488 -0.417314 1.01475e-11 7.56914e-10 8.8192e-10 -2.90554 0.965183 -0.102902 1.01392e-11 7.56913e-10 8.81915e-10 -10.2786 0.731801 -0.0259123 1.01555e-11 7.56918e-10 8.81914e-10 -2.22167 -0.733487 0.20892 -2.03217e-16 0.0 -3.88251e-19 1.99961 -8.93376 0.388207 -0.0993173 26.5942 0.577449 -5.22274 -16.4337 -12.3808 2.03217e-16 0.0 3.88251e-19 1.99616 -7.47681 5.21117 -0.00168599 26.1117 -0.436376 3.47162 -16.302 9.23692
274.694 82.2306 -143.946 -9.8965 -69.5772 7.4282 2.19704 1.69479 -0.75294 -1.40186 5.86241 -0.407018 4.04972 6.80442 1.31627 -4.29255 -7.63878 1.35407 -0.0 0.0 0.0 -0.0 0.0 0.0 4.49194e-14 4.58201e-13 2.25869e-13 81.4492 13.9192 0.525314 -13.5747 -6.61638 24.7023 -0.00187505 1.23635 0.173785 -9.53151e-10 -6.32994e-10 -1.35523e-10 -1.64886e-09 -1.09641e-09 -2.30525e-10 -9.53148e-10 -6.3299e-10 -1.3553e-10 7.73091 5.47488 0.417314 -9.53155e-10 -6.32995e-10 -1.35514e-10 2.90554 0.965183 0.102902 -9.53144e-10 -6.32991e-10 -1.35518e-10 10.2786 0.731801 0.0259123 -9.53155e-10 -6.32989e-10 -1.35514e-10 2.22167 -0.733487 -0.20892 4.4984e-14 4.58197e-13 2.2572e-13 -80.1821 20.962 -4.51971 10.938 -4.73122 -19.5726 0.684555 -22.8225 3.39062 -8.41225e-11 9.08471e-10 1.01922e-09 -1.61097e-10 1.56988e-09 1.76022e-09 -8.41344e-11 9.08466e-10 1.01923e-09 -7.73091 5.47488 -0.417314 -8.41231e-11 9.08463e-10 1.01923e-09 -2.90554 0.965183 -0.102902 -8.41302e-11 9.08462e-10 1.01923e-09 -10.2786 0.731801 -0.0259123 -8.41137e-11 9.08467e-10 1.01923e-09 -2.22167 -0.733487 0.20892 -2.03217e-16 0.0 -3.88251e-19 2.78555 -10.4731 0.478909 -0.221545 32.8716 0.767632 -7.52436 -20.6394 -15.5196 2.03217e-16 0.0 3.88251e-19 2.95111 -7.26375 6.28933 0.0222435 29.7046 -0.506487 4.80673 -19.4741 11.4845
274.701 82.2295 -143.962 -9.9346 -69.6281 7.4794 2.54061 1.81582 -0.818589 -1.44528 6.26239 -0.432269 4.33039 7.27374 1.41281 -4.59295 -8.17513 1.45363 -0.0 0.0 0.0 -0.0 0.0 0.0 1.95101e-14 3.6996e-13 2.63088e-13 87.1578 14.9021 0.574707 -14.3043 -6.97192 26.4408 -0.00225235 1.31275 0.184529 -8.44656e-10 -6.78691e-10 -4.31998e-11 -1.46087e-09 -1.17506e-09 -7.15916e-11 -8.44653e-10 -6.78688e-10 -4.32051e-11 7.73091 5.47488 0.417314 -8.44662e-10 -6.78692e-10 -4.3192e-11 2.90554 0.965183 0.102902 -8.44647e-10 -6.78688e-10 -4.31973e-11 10.2786 0.731801 0.0259123 -8.4466e-10 -6.78686e-10 -4.31939e-11 2.22167 -0.733487 -0.20892 1.95788e-14 3.69955e-13 2.62945e-13 -85.7067 22.2617 -4.89054 11.4976 -4.96263 -20.7857 0.830763 -24.2425 3.64295 3.12971e-11 1.07727e-09 1.06182e-09 3.69886e-11 1.86394e-09 1.83669e-09 3.12849e-11 1.07727e-09 1.06183e-09 -7.73091 5.47488 -0.417314 3.1296e-11 1.07726e-09 1.06183e-09 -2.90554 0.965183 -0.102902 3.12899e-11 1.07726e-09 1.06183e-09 -10.2786 0.731801 -0.0259123 3.1305e-11 1.07727e-09 1.06182e-09 -2.22167 -0.733487 0.20892 -2.03217e-16 0.0 -3.88251e-19 3.10702 -11.0851 0.524865 -0.283291 35.3232 0.850724 -8.56337 -22.2239 -16.8241 2.03217e-16 0.0 3.88251e-19 3.32845 -7.18661 6.7047 0.0336494 31.1101 -0.536179 5.40981 -20.698 12.4119
274.708 82.2291 -143.975 -9.9734 -69.6556 7.5256 2.50991 1.80518 -0.838544 -1.4366 6.20039 -0.437312 4.31148 7.20745 1.40572 -4.5785 -8.1136 1.44582 -0.0 0.0 0.0 -0.0 0.0 0.0 -1.57753e-14 1.90435e-13 2.97428e-13 86.5109 14.7997 0.584573 -14.208 -6.92046 26.2134 -0.0021525 1.28758 0.18099 -5.14935e-10 -6.92591e-10 1.13405e-10 -8.90244e-10 -1.1984e-09 1.97789e-10 -5.14931e-10 -6.92589e-10 1.134e-10 7.73091 5.47488 0.417314 -5.14941e-10 -6.92593e-10 1.1341e-10 2.90554 0.965183 0.102902 -5.14923e-10 -6.92589e-10 1.13403e-10 10.2786 0.731801 0.0259123 -5.14938e-10 -6.92587e-10 1.13407e-10 2.22167 -0.733487 -0.20892 -1.56958e-14 1.9043e-13 2.97289e-13 -85.1263 21.8582 -4.85628 11.2967 -4.84762 -20.3792 0.793349 -23.8037 3.56664 2.93408e-10 1.25204e-09 1.03257e-09 4.89206e-10 2.16958e-09 1.79063e-09 2.93397e-10 1.25204e-09 1.03258e-09 -7.73091 5.47488 -0.417314 2.93407e-10 1.25203e-09 1.03257e-09 -2.90554 0.965183 -0.102902 2.93401e-10 1.25204e-09 1.03257e-09 -10.2786 0.731801 -0.0259123 2.93414e-10 1.25204e-09 1.03257e-09 -2.22167 -0.733487 0.20892 -2.03217e-16 0.0 -3.88251e-19 3.09416 -11.0347 0.538201 -0.275774 35.0423 0.839198 -8.44508 -22.0199 -16.6933 2.03217e-16 0.0 3.88251e-19 3.29713 -7.20745 6.64716 0.0308841 30.9532 -0.533485 5.35394 -20.5661 12.336
274.715 82.2284 -143.986 -10.0051 -69.6603 7.5649 2.32874 1.74282 -0.839939 -1.40652 5.95383 -0.434189 4.1717 6.93026 1.35899 -4.43944 -7.82189 1.39876 -0.0 0.0 0.0 -0.0 0.0 0.0 -4.55699e-14 -3.84831e-15 2.92809e-13 83.3222 14.2625 0.578849 -13.7812 -6.70612 25.2017 -0.00188094 1.22452 0.172122 -8.37831e-11 -5.72859e-10 2.30602e-10 -1.44207e-10 -9.90384e-10 3.98611e-10 -8.37789e-11 -5.72859e-10 2.30597e-10 7.73091 5.47488 0.417314 -8.37901e-11 -5.72861e-10 2.30604e-10 2.90554 0.965183 0.102902 -8.37698e-11 -5.72857e-10 2.30596e-10 10.2786 0.731801 0.0259123 -8.37866e-11 -5.72856e-10 2.30601e-10 2.22167 -0.733487 -0.20892 -4.54842e-14 -3.8535e-15 2.92668e-13 -82.1035 20.8084 -4.64808 10.8017 -4.60126 -19.3561 0.688996 -22.6528 3.36663 5.10473e-10 1.21569e-09 8.33547e-10 8.66567e-10 2.10921e-09 1.44992e-09 5.10463e-10 1.21569e-09 8.33556e-10 -7.73091 5.47488 -0.417314 5.10471e-10 1.21569e-09 8.3354e-10 -2.90554 0.965183 -0.102902 5.10466e-10 1.21569e-09 8.33548e-10 -10.2786 0.731801 -0.0259123 5.10476e-10 1.21569e-09 8.33538e-10 -2.22167 -0.733487 0.20892 -2.03217e-16 0.0 -3.88251e-19 2.94601 -10.7196 0.537105 -0.240831 33.6691 0.790126 -7.86301 -21.101 -15.9855 2.03217e-16 0.0 3.88251e-19 3.10174 -7.26737 6.40127 0.0224378 30.1718 -0.51783 5.03419 -19.8922 11.8596
